<svg width="403" height="383" viewBox="0 0 403 383" fill="none" xmlns="http://www.w3.org/2000/svg">
<path d="M320.542 79.7917V78.2917H319.042H251.875H250.375V79.7917V111.708V113.208H251.875H319.042H320.542V111.708V79.7917ZM152.625 79.7917V78.2917H151.125H83.9583H82.4583V79.7917V175.542V177.042H83.9583H151.125H152.625V175.542V79.7917ZM320.542 207.458V205.958H319.042H251.875H250.375V207.458V303.208V304.708H251.875H319.042H320.542V303.208V207.458ZM152.625 271.292V269.792H151.125H83.9583H82.4583V271.292V303.208V304.708H83.9583H151.125H152.625V303.208V271.292ZM219.792 142.125V49.375H351.125V142.125H219.792ZM183.208 49.375V205.958H51.875V49.375H183.208ZM219.792 333.625V177.042H351.125V333.625H219.792ZM51.875 333.625V240.875H183.208V333.625H51.875Z" fill="white" stroke="black" stroke-width="3"/>
<path d="M83.2173 79.1372H151.304V175.769H83.2173V79.1372Z" fill="#FF3030" stroke="black" stroke-width="2"/>
<rect x="252.543" y="79.918" width="66.3913" height="31.0234" fill="#FF5C00" stroke="black"/>
<rect x="252.543" y="208.012" width="66.3913" height="95.0702" fill="#3D89FF" stroke="black"/>
<rect x="84.0652" y="272.059" width="66.3913" height="31.0234" fill="#EB6300" stroke="black"/>
</svg>
