<svg id="visual" viewBox="0 0 900 600" width="900" height="600" xmlns="http://www.w3.org/2000/svg" xmlns:xlink="http://www.w3.org/1999/xlink" version="1.1"><rect x="0" y="0" width="900" height="600" fill="#ffffff"></rect><path d="M0 465L21.5 467.3C43 469.7 86 474.3 128.8 479.3C171.7 484.3 214.3 489.7 257.2 493.8C300 498 343 501 385.8 496.5C428.7 492 471.3 480 514.2 481.7C557 483.3 600 498.7 642.8 496.3C685.7 494 728.3 474 771.2 464C814 454 857 454 878.5 454L900 454L900 601L878.5 601C857 601 814 601 771.2 601C728.3 601 685.7 601 642.8 601C600 601 557 601 514.2 601C471.3 601 428.7 601 385.8 601C343 601 300 601 257.2 601C214.3 601 171.7 601 128.8 601C86 601 43 601 21.5 601L0 601Z" fill="#ff3030"></path><path d="M0 540L21.5 533.2C43 526.3 86 512.7 128.8 512C171.7 511.3 214.3 523.7 257.2 530C300 536.3 343 536.7 385.8 538.3C428.7 540 471.3 543 514.2 537.2C557 531.3 600 516.7 642.8 516.5C685.7 516.3 728.3 530.7 771.2 531C814 531.3 857 517.7 878.5 510.8L900 504L900 601L878.5 601C857 601 814 601 771.2 601C728.3 601 685.7 601 642.8 601C600 601 557 601 514.2 601C471.3 601 428.7 601 385.8 601C343 601 300 601 257.2 601C214.3 601 171.7 601 128.8 601C86 601 43 601 21.5 601L0 601Z" fill="#ff6738"></path><path d="M0 576L21.5 572.2C43 568.3 86 560.7 128.8 556.2C171.7 551.7 214.3 550.3 257.2 550.7C300 551 343 553 385.8 551.8C428.7 550.7 471.3 546.3 514.2 547C557 547.7 600 553.3 642.8 553.8C685.7 554.3 728.3 549.7 771.2 547.8C814 546 857 547 878.5 547.5L900 548L900 601L878.5 601C857 601 814 601 771.2 601C728.3 601 685.7 601 642.8 601C600 601 557 601 514.2 601C471.3 601 428.7 601 385.8 601C343 601 300 601 257.2 601C214.3 601 171.7 601 128.8 601C86 601 43 601 21.5 601L0 601Z" fill="#ff8d4b"></path></svg>