<svg id="visual" viewBox="0 0 900 600" width="900" height="600" xmlns="http://www.w3.org/2000/svg" xmlns:xlink="http://www.w3.org/1999/xlink" version="1.1"><path d="M0 151L25 142C50 133 100 115 150 118C200 121 250 145 300 165C350 185 400 201 450 209C500 217 550 217 600 197C650 177 700 137 750 122C800 107 850 117 875 122L900 127L900 0L875 0C850 0 800 0 750 0C700 0 650 0 600 0C550 0 500 0 450 0C400 0 350 0 300 0C250 0 200 0 150 0C100 0 50 0 25 0L0 0Z" fill="#ff9357"></path><path d="M0 373L25 371C50 369 100 365 150 359C200 353 250 345 300 353C350 361 400 385 450 382C500 379 550 349 600 341C650 333 700 347 750 350C800 353 850 345 875 341L900 337L900 125L875 120C850 115 800 105 750 120C700 135 650 175 600 195C550 215 500 215 450 207C400 199 350 183 300 163C250 143 200 119 150 116C100 113 50 131 25 140L0 149Z" fill="#ff7933"></path><path d="M0 469L25 469C50 469 100 469 150 473C200 477 250 485 300 493C350 501 400 509 450 496C500 483 550 449 600 439C650 429 700 443 750 452C800 461 850 465 875 467L900 469L900 335L875 339C850 343 800 351 750 348C700 345 650 331 600 339C550 347 500 377 450 380C400 383 350 359 300 351C250 343 200 351 150 357C100 363 50 367 25 369L0 371Z" fill="#ff5c00"></path><path d="M0 511L25 518C50 525 100 539 150 548C200 557 250 561 300 562C350 563 400 561 450 553C500 545 550 531 600 528C650 525 700 533 750 539C800 545 850 549 875 551L900 553L900 467L875 465C850 463 800 459 750 450C700 441 650 427 600 437C550 447 500 481 450 494C400 507 350 499 300 491C250 483 200 475 150 471C100 467 50 467 25 467L0 467Z" fill="#dd4f05"></path><path d="M0 601L25 601C50 601 100 601 150 601C200 601 250 601 300 601C350 601 400 601 450 601C500 601 550 601 600 601C650 601 700 601 750 601C800 601 850 601 875 601L900 601L900 551L875 549C850 547 800 543 750 537C700 531 650 523 600 526C550 529 500 543 450 551C400 559 350 561 300 560C250 559 200 555 150 546C100 537 50 523 25 516L0 509Z" fill="#bb4308"></path></svg>