<svg id="visual" viewBox="0 0 900 600" width="900" height="600" xmlns="http://www.w3.org/2000/svg" xmlns:xlink="http://www.w3.org/1999/xlink" version="1.1"><rect x="0" y="0" width="900" height="600" fill="#ff6206"></rect><path d="M0 495L30 503.8C60 512.7 120 530.3 180 539.5C240 548.7 300 549.3 360 543.3C420 537.3 480 524.7 540 512C600 499.3 660 486.7 720 482.2C780 477.7 840 481.3 870 483.2L900 485L900 601L870 601C840 601 780 601 720 601C660 601 600 601 540 601C480 601 420 601 360 601C300 601 240 601 180 601C120 601 60 601 30 601L0 601Z" fill="#ff0000" stroke-linecap="round" stroke-linejoin="miter"></path></svg>