<svg id="visual" viewBox="0 0 900 600" width="900" height="600" xmlns="http://www.w3.org/2000/svg" xmlns:xlink="http://www.w3.org/1999/xlink" version="1.1"><rect x="0" y="0" width="900" height="600" fill="#ffffff"></rect><path d="M0 496L21.5 498C43 500 86 504 128.8 501.2C171.7 498.3 214.3 488.7 257.2 491.2C300 493.7 343 508.3 385.8 518C428.7 527.7 471.3 532.3 514.2 526.2C557 520 600 503 642.8 493.5C685.7 484 728.3 482 771.2 490.2C814 498.3 857 516.7 878.5 525.8L900 535L900 601L878.5 601C857 601 814 601 771.2 601C728.3 601 685.7 601 642.8 601C600 601 557 601 514.2 601C471.3 601 428.7 601 385.8 601C343 601 300 601 257.2 601C214.3 601 171.7 601 128.8 601C86 601 43 601 21.5 601L0 601Z" fill="#0066FF" stroke-linecap="round" stroke-linejoin="miter"></path></svg>