<?xml version="1.0" standalone="no"?><svg xmlns:xlink="http://www.w3.org/1999/xlink" xmlns="http://www.w3.org/2000/svg" viewBox="0 0 600 327.2728868013097" preserveAspectRatio="xMaxYMax slice"><g transform="scale(0.8774072032206695)"><rect x="0" y="0" width="683.8333333333333" height="373" fill="#ffffff"/><path d="M 0 0 A 62.17 62.17 0 0 1  62.17 62.17 L 0 0 A 62.17 62.17 0 0 0 62.17 62.17" fill="#ffacbf"/><path d="M 124.33 62.17 A 62.17 62.17 0 0 1  186.5 0 L 124.33 62.17 A 62.17 62.17 0 0 0 186.5 0" fill="#ccd5f8"/><rect x="559.5" y="0" width="62.166666666666664" height="62.166666666666664" fill="#ffffff"/><rect x="0" y="62.166666666666664" width="62.166666666666664" height="62.166666666666664" fill="#ffffff"/><path d="M 31.08 62.17 A 31.08 31.08 0 0 1  62.16 93.25 L 31.08 62.17 A 31.08 31.08 0 0 0 62.16 93.25" fill="#dce2fa"/><path d="M 0 124.33 A 31.08 31.08 0 0 1  31.08 93.25 L 0 124.33 A 31.08 31.08 0 0 0 31.08 93.25" fill="#4464e7"/><path d="M 31.08 93.25 A 31.08 31.08 0 0 1  62.16 124.33 L 31.08 93.25 A 31.08 31.08 0 0 0 62.16 124.33" fill="#b6c3f6"/><rect x="248.66666666666666" y="62.166666666666664" width="62.166666666666664" height="62.166666666666664" fill="#ffffff"/><path d="M 248.67 62.17 A 31.08 31.08 0 0 1  279.75 93.25 L 248.67 62.17 A 31.08 31.08 0 0 0 279.75 93.25" fill="#f5f6fe"/><rect x="310.8333333333333" y="62.166666666666664" width="62.166666666666664" height="62.166666666666664" fill="#ffffff"/><path d="M 310.83 93.25 A 31.08 31.08 0 0 1  341.90999999999997 124.33 L 310.83 93.25 A 31.08 31.08 0 0 0 341.90999999999997 124.33" fill="#3456e5"/><path d="M 341.92 124.33 A 31.08 31.08 0 0 1  373 93.25 L 341.92 124.33 A 31.08 31.08 0 0 0 373 93.25" fill="#7c92ee"/><rect x="435.16666666666663" y="62.166666666666664" width="62.166666666666664" height="62.166666666666664" fill="#ffffff"/><path d="M 559.5 62.17 A 62.17 62.17 0 0 1  621.67 124.34 L 559.5 62.17 A 62.17 62.17 0 0 0 621.67 124.34" fill="#8499ef"/><rect x="621.6666666666666" y="124.33333333333333" width="62.166666666666664" height="62.166666666666664" fill="#ffffff"/><rect x="0" y="186.5" width="62.166666666666664" height="62.166666666666664" fill="#ffffff"/><rect x="435.16666666666663" y="186.5" width="62.166666666666664" height="62.166666666666664" fill="#ffffff"/><path d="M 435.17 217.57999999999998 A 31.08 31.08 0 0 1  466.25 186.5 L 435.17 217.57999999999998 A 31.08 31.08 0 0 0 466.25 186.5" fill="#ffc9d6"/><path d="M 466.25 186.5 A 31.08 31.08 0 0 1  497.33 217.57999999999998 L 466.25 186.5 A 31.08 31.08 0 0 0 497.33 217.57999999999998" fill="#ffc3d1"/><path d="M 435.17 217.58 A 31.08 31.08 0 0 1  466.25 248.66000000000003 L 435.17 217.58 A 31.08 31.08 0 0 0 466.25 248.66000000000003" fill="#738bed"/><path d="M 466.25 248.66000000000003 A 31.08 31.08 0 0 1  497.33 217.58 L 466.25 248.66000000000003 A 31.08 31.08 0 0 0 497.33 217.58" fill="#ff4a75"/><rect x="497.3333333333333" y="186.5" width="62.166666666666664" height="62.166666666666664" fill="#ffffff"/><rect x="559.5" y="186.5" width="62.166666666666664" height="62.166666666666664" fill="#ffffff"/><path d="M 590.58 217.58 A 31.08 31.08 0 0 1  621.6600000000001 248.66000000000003 L 590.58 217.58 A 31.08 31.08 0 0 0 621.6600000000001 248.66000000000003" fill="#1a40e1"/><path d="M 62.17 248.67 A 62.17 62.17 0 0 1  124.34 310.84 L 62.17 248.67 A 62.17 62.17 0 0 0 124.34 310.84" fill="#8499ef"/><rect x="124.33333333333333" y="248.66666666666666" width="62.166666666666664" height="62.166666666666664" fill="#ffffff"/><path d="M 124.33 279.75 A 31.08 31.08 0 0 1  155.41 310.83 L 124.33 279.75 A 31.08 31.08 0 0 0 155.41 310.83" fill="#b2bff5"/><path d="M 310.83 248.67 A 62.17 62.17 0 0 1  373 310.84 L 310.83 248.67 A 62.17 62.17 0 0 0 373 310.84" fill="#ff92ac"/><path d="M 435.17 248.67 A 62.17 62.17 0 0 1  497.34000000000003 310.84 L 435.17 248.67 A 62.17 62.17 0 0 0 497.34000000000003 310.84" fill="#a8b7f4"/><path d="M 497.33 248.67 A 62.17 62.17 0 0 1  559.5 310.84 L 497.33 248.67 A 62.17 62.17 0 0 0 559.5 310.84" fill="#6982ec"/><rect x="559.5" y="248.66666666666666" width="62.166666666666664" height="62.166666666666664" fill="#ffffff"/><path d="M 590.58 310.83 A 31.08 31.08 0 0 1  621.6600000000001 279.75 L 590.58 310.83 A 31.08 31.08 0 0 0 621.6600000000001 279.75" fill="#5673e9"/><rect x="621.6666666666666" y="310.8333333333333" width="62.166666666666664" height="62.166666666666664" fill="#ffffff"/><path d="M 652.75 310.83 A 31.08 31.08 0 0 1  683.83 341.90999999999997 L 652.75 310.83 A 31.08 31.08 0 0 0 683.83 341.90999999999997" fill="#ffffff"/><path d="M 621.67 373 A 31.08 31.08 0 0 1  652.75 341.92 L 621.67 373 A 31.08 31.08 0 0 0 652.75 341.92" fill="#7a90ee"/><path d="M 652.75 373 A 31.08 31.08 0 0 1  683.83 341.92 L 652.75 373 A 31.08 31.08 0 0 0 683.83 341.92" fill="#cad3f8"/></g></svg>